<?xml version="1.0" encoding="utf-8"?>
<!-- Generator: Adobe Illustrator 19.0.0, SVG Export Plug-In . SVG Version: 6.00 Build 0)  -->
<svg version="1.1" id="Layer_1" xmlns="http://www.w3.org/2000/svg" xmlns:xlink="http://www.w3.org/1999/xlink" x="0px" y="0px"
	 viewBox="0 0 792 612" style="enable-background:new 0 0 792 612;" xml:space="preserve">
<style type="text/css">
	.st0{fill:#A5A5A5;}
	.st1{opacity:0.3;fill:#FFFFFF;}
	.st2{fill:#CDCCCC;}
	.st3{fill:#939598;}
	.st4{fill:#414042;}
	.st5{fill-rule:evenodd;clip-rule:evenodd;fill:#F29D1F;}
	.st6{fill-rule:evenodd;clip-rule:evenodd;fill:#E6E6E5;}
	.st7{fill-rule:evenodd;clip-rule:evenodd;fill:#484747;}
	.st8{fill-rule:evenodd;clip-rule:evenodd;fill:#D84948;}
	.st9{opacity:0.2;fill-rule:evenodd;clip-rule:evenodd;fill:#231F20;}
	.st10{opacity:0.1;fill-rule:evenodd;clip-rule:evenodd;fill:#231F20;}
	.st11{fill-rule:evenodd;clip-rule:evenodd;fill:#4E4E4E;}
	.st12{fill-rule:evenodd;clip-rule:evenodd;fill:#34679A;}
	.st13{fill:#CD6628;}
	.st14{opacity:0.2;fill:#FFFFFF;}
	.st15{opacity:0.1;fill:#010101;}
	.st16{fill:#27AAE1;}
	.st17{opacity:0.2;fill:#010101;}
</style>
<g id="XMLID_33_">
	<g id="XMLID_1_">
		<path id="XMLID_21_" class="st0" d="M465.5,486.1c-24-21.2-13.1-70.6-13.1-70.6h-35.8h-35.8c0,0,10.9,49.4-13.1,70.6
			c-24,21.2-52,21.2-52,21.2v11.9h100.9h100.9v-11.9C517.5,507.3,489.5,507.3,465.5,486.1z"/>
		<rect id="XMLID_20_" x="315.8" y="507.3" class="st1" width="201.8" height="11.9"/>
		<path id="XMLID_19_" class="st2" d="M683.3,383.7c0,17.6-14.2,31.8-31.8,31.8H181.8c-17.6,0-31.8-14.2-31.8-31.8V124.1
			c0-17.6,14.2-31.8,31.8-31.8h469.8c17.6,0,31.8,14.2,31.8,31.8V383.7z"/>
		<path id="XMLID_18_" class="st3" d="M150,124.1v259.6c0,6.2,1.8,11.9,4.8,16.8h523.7c3-4.9,4.8-10.6,4.8-16.8V124.1
			c0-8.2-3.2-15.7-8.3-21.3H158.3C153.2,108.4,150,115.9,150,124.1z"/>
		<rect id="XMLID_17_" x="173" y="113.5" class="st4" width="487.4" height="275.9"/>
	</g>
	<g id="XMLID_9_">
		<g id="Board_1_">
			<path id="XMLID_32_" class="st5" d="M338.1,152.5h157.4c5.9,0,10.8,4.9,10.8,11v193.2c0,6-4.8,11-10.8,11H338.1
				c-5.9,0-10.8-4.9-10.8-11V163.5C327.3,157.4,332.1,152.5,338.1,152.5L338.1,152.5z"/>
			<rect id="XMLID_31_" x="336" y="162.1" class="st6" width="161.6" height="196"/>
			<polygon id="XMLID_30_" class="st7" points="383.2,131 450.3,131 450.3,162.1 446.6,162.1 446.6,134.9 386.7,134.9 386.7,162.1 
				383.2,162.1 			"/>
			<path id="XMLID_29_" class="st8" d="M377.9,149.5h77.7c1.6,0,2.9,1.4,2.9,3v13.9c0,1.7-1.3,3-2.9,3h-77.7c-1.6,0-2.9-1.3-2.9-3
				v-13.9C375,150.9,376.3,149.5,377.9,149.5L377.9,149.5z"/>
			<path id="XMLID_28_" class="st9" d="M414.9,149.5h40.7c1.6,0,2.9,1.4,2.9,3v13.9c0,1.7-1.3,3-2.9,3h-40.7V149.5z"/>
			<path id="XMLID_27_" class="st10" d="M414.9,152.5h80.6c5.9,0,10.8,4.9,10.8,11v193.2c0,6-4.8,11-10.8,11h-80.6V152.5z"/>
		</g>
		<g id="Paragraph_1_">
			<rect id="XMLID_26_" x="356" y="198.7" class="st11" width="117.8" height="3.6"/>
			<rect id="XMLID_25_" x="356" y="207.2" class="st12" width="117.8" height="3.6"/>
			<rect id="XMLID_24_" x="356" y="215.2" class="st11" width="117.8" height="3.6"/>
			<rect id="XMLID_23_" x="356" y="223.7" class="st11" width="117.8" height="3.6"/>
			<rect id="XMLID_22_" x="356" y="232.1" class="st12" width="117.8" height="3.6"/>
			<rect id="XMLID_16_" x="356" y="240.1" class="st11" width="117.8" height="3.6"/>
			<rect id="XMLID_15_" x="356" y="248.7" class="st11" width="117.8" height="3.6"/>
		</g>
		<g id="Paragraph_2_">
			<rect id="XMLID_8_" x="356" y="256.5" class="st11" width="117.8" height="3.6"/>
			<rect id="XMLID_7_" x="356" y="265.1" class="st12" width="117.8" height="3.6"/>
			<rect id="XMLID_6_" x="356" y="273" class="st11" width="117.8" height="3.6"/>
			<rect id="XMLID_5_" x="356" y="281.6" class="st11" width="117.8" height="3.6"/>
			<rect id="XMLID_4_" x="356" y="290" class="st12" width="117.8" height="3.6"/>
			<rect id="XMLID_3_" x="356" y="297.9" class="st11" width="117.8" height="3.6"/>
			<rect id="XMLID_2_" x="356" y="306.5" class="st11" width="117.8" height="3.6"/>
		</g>
	</g>
	<g id="XMLID_13_">
		<path id="XMLID_35_" class="st13" d="M301.1,364.5c-3.3,3.9-9.1,4.3-13,1l0,0c-3.9-3.3-4.3-9.1-1-13l32.7-38.3
			c3.3-3.9,9.1-4.3,13-1l0,0c3.9,3.3,4.3,9.1,1,13L301.1,364.5z"/>
		<path id="XMLID_34_" class="st14" d="M302.5,360.7c-2.8,3.3-7.7,3.7-11,0.9l0,0c-3.3-2.8-3.6-7.8-0.8-11l27.7-32.5
			c2.8-3.3,7.7-3.7,11-0.9l0,0c3.3,2.8,3.6,7.8,0.8,11L302.5,360.7z"/>
		<path id="XMLID_14_" class="st15" d="M336,320.2c0-2.6-1.1-5.2-3.2-7.1c-1.9-1.6-4.2-2.3-6.5-2.2c-0.2,1.9,1.2,4.5,3.6,6.6
			C331.9,319.3,334.2,320.2,336,320.2z"/>
		<path id="XMLID_38_" class="st16" d="M398.2,301.6c15.2-17.8,13.1-44.5-4.6-59.7c-17.7-15.2-44.3-13.2-59.5,4.6
			c-14,16.4-13.3,40.6,0.9,56.1L328,311c0,0,0.4,8,7.9,7.5l7.6-8.8C360.8,321,384.3,317.9,398.2,301.6z M344.7,299.2
			c-13.8-11.9-15.4-32.8-3.6-46.7c11.8-13.9,32.7-15.5,46.5-3.6c13.8,11.9,15.4,32.8,3.6,46.7C379.3,309.5,358.5,311.1,344.7,299.2z
			"/>
		<path id="XMLID_10_" class="st17" d="M397.2,262.4c-1.9-5.1-5-9.8-9.4-13.6c-13.1-11.3-32.5-10.4-44.6,1.6
			C370.9,235.6,389,251.8,397.2,262.4z"/>
	</g>
</g>
</svg>
